<svg xmlns="http://www.w3.org/2000/svg" width="1440" height="960" viewBox="0 0 1440 960" role="img" aria-labelledby="title"><title id="title">Find your heaviest images</title><rect width="1440" height="960" fill="#fffdf8"/><rect x="40" y="310" width="1360" height="620" rx="32" fill="#e2dffe" fill-opacity=".5"/><g font-family="Arial, sans-serif" font-weight="400"><text x="80" y="73" font-size="26" fill="#675b7a">COMPRESSBYURL / GUIDES</text><text x="80" y="166" font-size="80" fill="#3c315b">Find your</text><text x="80" y="258" font-size="80" fill="#3c315b">heaviest images</text><rect x="150" y="350" width="1140" height="500" rx="24" fill="#fffdf8" stroke="#3c315b" stroke-width="5"/><path d="M150 405L1290 405" fill="none" stroke="#3c315b" stroke-width="7" stroke-linecap="round"/><circle cx="170" cy="378" r="5" fill="#3c315b"/><circle cx="190" cy="378" r="5" fill="#3c315b"/><circle cx="210" cy="378" r="5" fill="#3c315b"/><rect x="200" y="455" width="295" height="235" rx="24" fill="#e2dffe" stroke="#3c315b" stroke-width="5"/><circle cx="421.25" cy="520.8" r="23.5" fill="#fffdf8"/><path d="M218 672L300.3 553.7L368.15 617.15L418.3 572.5L477 672Z" fill="#ab9ff2"/><rect x="200" y="735" width="255" height="55" rx="12" fill="#ab9ff2" stroke="#3c315b" stroke-width="5"/><rect x="550" y="455" width="295" height="235" rx="24" fill="#e2dffe" stroke="#3c315b" stroke-width="5"/><circle cx="771.25" cy="520.8" r="23.5" fill="#fffdf8"/><path d="M568 672L650.3 553.7L718.15 617.15L768.3 572.5L827 672Z" fill="#ab9ff2"/><rect x="550" y="735" width="170" height="55" rx="12" fill="#e2dffe" stroke="#3c315b" stroke-width="5"/><rect x="900" y="455" width="295" height="235" rx="24" fill="#e2dffe" stroke="#3c315b" stroke-width="5"/><circle cx="1121.25" cy="520.8" r="23.5" fill="#fffdf8"/><path d="M918 672L1000.3 553.7L1068.15 617.15L1118.3 572.5L1177 672Z" fill="#ab9ff2"/><rect x="900" y="735" width="100" height="55" rx="12" fill="#e2dffe" stroke="#3c315b" stroke-width="5"/><text x="200" y="905" font-size="36" fill="#3c315b">INVENTORY → PRIORITIZE → REPLACE</text></g></svg>