<svg xmlns="http://www.w3.org/2000/svg" width="1440" height="960" viewBox="0 0 1440 960" role="img" aria-labelledby="title"><title id="title">Find the image the browser chose</title><rect width="1440" height="960" fill="#fffdf8"/><rect x="40" y="310" width="1360" height="620" rx="32" fill="#e2dffe" fill-opacity=".5"/><g font-family="Arial, sans-serif" font-weight="400"><text x="80" y="73" font-size="26" fill="#675b7a">COMPRESSBYURL / GUIDES</text><text x="80" y="166" font-size="80" fill="#3c315b">Find the image</text><text x="80" y="258" font-size="80" fill="#3c315b">the browser chose</text><rect x="115" y="355" width="1210" height="480" rx="24" fill="#fffdf8" stroke="#3c315b" stroke-width="5"/><path d="M115 410L1325 410" fill="none" stroke="#3c315b" stroke-width="7" stroke-linecap="round"/><circle cx="135" cy="383" r="5" fill="#3c315b"/><circle cx="155" cy="383" r="5" fill="#3c315b"/><circle cx="175" cy="383" r="5" fill="#3c315b"/><rect x="160" y="450" width="395" height="290" rx="24" fill="#e2dffe" stroke="#3c315b" stroke-width="5"/><circle cx="456.25" cy="531.2" r="29" fill="#fffdf8"/><path d="M178 722L294.3 571.8L385.15 650.1L452.3 595L537 722Z" fill="#ab9ff2"/><rect x="620" y="450" width="650" height="295" rx="16" fill="#e2dffe" stroke="#3c315b" stroke-width="5"/><text x="660" y="515" font-size="48" fill="#3c315b">currentSrc</text><text x="660" y="590" font-size="32" fill="#3c315b">SELECTED RESOURCE</text><text x="660" y="670" font-size="30" fill="#3c315b">SIZE • REQUEST • TIMING</text><path d="M610 775L1210 775" fill="none" stroke="#ab9ff2" stroke-width="20" stroke-linecap="round"/></g></svg>