<svg xmlns="http://www.w3.org/2000/svg" width="1440" height="960" viewBox="0 0 1440 960" role="img" aria-labelledby="title"><title id="title">Improve image delivery</title><rect width="1440" height="960" fill="#fffdf8"/><rect x="40" y="310" width="1360" height="620" rx="32" fill="#e2dffe" fill-opacity=".5"/><g font-family="Arial, sans-serif" font-weight="400"><text x="80" y="73" font-size="26" fill="#675b7a">COMPRESSBYURL / GUIDES</text><text x="80" y="166" font-size="80" fill="#3c315b">Improve image</text><text x="80" y="258" font-size="80" fill="#3c315b">delivery</text><rect x="105" y="410" width="350" height="260" rx="24" fill="#e2dffe" stroke="#3c315b" stroke-width="5"/><circle cx="367.5" cy="482.8" r="26" fill="#fffdf8"/><path d="M123 652L224 519.2L304.5 589.4L364 540L437 652Z" fill="#ab9ff2"/><path d="M495 540L705 540" fill="none" stroke="#3c315b" stroke-width="7" stroke-linecap="round"/><path d="M687 524L705 540L687 556" fill="none" stroke="#3c315b" stroke-width="7" stroke-linecap="round" stroke-linejoin="round"/><rect x="760" y="375" width="555" height="355" rx="24" fill="#fffdf8" stroke="#3c315b" stroke-width="5"/><path d="M760 430L1315 430" fill="none" stroke="#3c315b" stroke-width="7" stroke-linecap="round"/><circle cx="780" cy="403" r="5" fill="#3c315b"/><circle cx="800" cy="403" r="5" fill="#3c315b"/><circle cx="820" cy="403" r="5" fill="#3c315b"/><rect x="815" y="470" width="440" height="205" rx="24" fill="#e2dffe" stroke="#3c315b" stroke-width="5"/><circle cx="1145" cy="527.4" r="20.5" fill="#fffdf8"/><path d="M833 657L964.6 556.1L1065.8 611.45L1140.6 572.5L1237 657Z" fill="#ab9ff2"/><rect x="155" y="760" width="220" height="64" rx="32" fill="#e2dffe" stroke="#3c315b" stroke-width="5"/><text x="179" y="804" font-size="30" fill="#3c315b">SOURCE</text><rect x="920" y="760" width="220" height="64" rx="32" fill="#e2dffe" stroke="#3c315b" stroke-width="5"/><text x="944" y="804" font-size="30" fill="#3c315b">DELIVERED</text></g></svg>